<mxfile host="app.diagrams.net" modified="2023-01-18T10:03:35.860Z" agent="5.0 (X11; Ubuntu)" etag="6RzVmputo-xSUBSLyF54" version="20.8.5" type="github">
  <diagram id="6a731a19-8d31-9384-78a2-239565b7b9f0" name="Page-1">
    <mxGraphModel dx="1050" dy="579" grid="1" gridSize="10" guides="1" tooltips="1" connect="1" arrows="1" fold="1" page="1" pageScale="1" pageWidth="1169" pageHeight="827" background="none" math="0" shadow="0">
      <root>
        <mxCell id="0" />
        <mxCell id="1" parent="0" />
        <mxCell id="UuY6J-Y-4haexHFStDAC-66" style="edgeStyle=orthogonalEdgeStyle;rounded=0;orthogonalLoop=1;jettySize=auto;html=1;exitX=0.5;exitY=1;exitDx=0;exitDy=0;exitPerimeter=0;entryX=0.5;entryY=0;entryDx=0;entryDy=0;" edge="1" parent="1" source="2" target="UuY6J-Y-4haexHFStDAC-65">
          <mxGeometry relative="1" as="geometry" />
        </mxCell>
        <mxCell id="2" value="call lcm_faulty(p, q)" style="shape=mxgraph.flowchart.terminator;strokeWidth=2;gradientColor=none;gradientDirection=north;fontStyle=0;html=1;" parent="1" vertex="1">
          <mxGeometry x="260" y="40" width="120" height="50" as="geometry" />
        </mxCell>
        <mxCell id="14" value="r &amp;gt; p and&amp;nbsp; r &amp;gt; q" style="text;fontStyle=0;html=1;strokeColor=none;gradientColor=none;fillColor=none;strokeWidth=2;align=center;" parent="1" vertex="1">
          <mxGeometry x="300" y="310" width="130" height="26" as="geometry" />
        </mxCell>
        <mxCell id="UuY6J-Y-4haexHFStDAC-63" style="edgeStyle=orthogonalEdgeStyle;rounded=0;orthogonalLoop=1;jettySize=auto;html=1;exitX=0.5;exitY=1;exitDx=0;exitDy=0;exitPerimeter=0;entryX=0.5;entryY=0;entryDx=0;entryDy=0;" edge="1" parent="1" source="UuY6J-Y-4haexHFStDAC-58" target="UuY6J-Y-4haexHFStDAC-62">
          <mxGeometry relative="1" as="geometry" />
        </mxCell>
        <mxCell id="UuY6J-Y-4haexHFStDAC-77" style="edgeStyle=orthogonalEdgeStyle;rounded=0;orthogonalLoop=1;jettySize=auto;html=1;exitX=0;exitY=0.5;exitDx=0;exitDy=0;exitPerimeter=0;entryX=0;entryY=0.5;entryDx=0;entryDy=0;" edge="1" parent="1" source="UuY6J-Y-4haexHFStDAC-58" target="UuY6J-Y-4haexHFStDAC-75">
          <mxGeometry relative="1" as="geometry">
            <Array as="points">
              <mxPoint x="170" y="260" />
              <mxPoint x="170" y="640" />
            </Array>
          </mxGeometry>
        </mxCell>
        <mxCell id="UuY6J-Y-4haexHFStDAC-58" value="while loop" style="shape=mxgraph.flowchart.decision;strokeWidth=2;gradientColor=none;gradientDirection=north;fontStyle=0;html=1;" vertex="1" parent="1">
          <mxGeometry x="271" y="219" width="98" height="81" as="geometry" />
        </mxCell>
        <mxCell id="UuY6J-Y-4haexHFStDAC-69" style="edgeStyle=orthogonalEdgeStyle;rounded=0;orthogonalLoop=1;jettySize=auto;html=1;exitX=0.5;exitY=1;exitDx=0;exitDy=0;entryX=0.5;entryY=0;entryDx=0;entryDy=0;" edge="1" parent="1" source="UuY6J-Y-4haexHFStDAC-62" target="UuY6J-Y-4haexHFStDAC-68">
          <mxGeometry relative="1" as="geometry" />
        </mxCell>
        <mxCell id="UuY6J-Y-4haexHFStDAC-73" style="edgeStyle=orthogonalEdgeStyle;rounded=0;orthogonalLoop=1;jettySize=auto;html=1;exitX=1;exitY=0.5;exitDx=0;exitDy=0;" edge="1" parent="1" source="UuY6J-Y-4haexHFStDAC-62" target="UuY6J-Y-4haexHFStDAC-70">
          <mxGeometry relative="1" as="geometry" />
        </mxCell>
        <mxCell id="UuY6J-Y-4haexHFStDAC-62" value="&lt;div&gt;check if condition&lt;/div&gt;" style="rhombus;whiteSpace=wrap;html=1;" vertex="1" parent="1">
          <mxGeometry x="254.75" y="360" width="130.5" height="80" as="geometry" />
        </mxCell>
        <mxCell id="UuY6J-Y-4haexHFStDAC-67" style="edgeStyle=orthogonalEdgeStyle;rounded=0;orthogonalLoop=1;jettySize=auto;html=1;exitX=0.5;exitY=1;exitDx=0;exitDy=0;entryX=0.5;entryY=0;entryDx=0;entryDy=0;entryPerimeter=0;" edge="1" parent="1" source="UuY6J-Y-4haexHFStDAC-65" target="UuY6J-Y-4haexHFStDAC-58">
          <mxGeometry relative="1" as="geometry" />
        </mxCell>
        <mxCell id="UuY6J-Y-4haexHFStDAC-65" value="&lt;div&gt;m = 0&lt;/div&gt;&lt;div&gt;r = p * q&lt;br&gt;&lt;/div&gt;" style="rounded=1;whiteSpace=wrap;html=1;" vertex="1" parent="1">
          <mxGeometry x="260" y="130" width="120" height="60" as="geometry" />
        </mxCell>
        <mxCell id="UuY6J-Y-4haexHFStDAC-71" style="edgeStyle=orthogonalEdgeStyle;rounded=0;orthogonalLoop=1;jettySize=auto;html=1;exitX=1;exitY=0.5;exitDx=0;exitDy=0;" edge="1" parent="1" source="UuY6J-Y-4haexHFStDAC-68" target="UuY6J-Y-4haexHFStDAC-70">
          <mxGeometry relative="1" as="geometry" />
        </mxCell>
        <mxCell id="UuY6J-Y-4haexHFStDAC-68" value="m = r" style="rounded=1;whiteSpace=wrap;html=1;" vertex="1" parent="1">
          <mxGeometry x="260" y="500" width="120" height="60" as="geometry" />
        </mxCell>
        <mxCell id="UuY6J-Y-4haexHFStDAC-74" style="edgeStyle=orthogonalEdgeStyle;rounded=0;orthogonalLoop=1;jettySize=auto;html=1;exitX=0.5;exitY=0;exitDx=0;exitDy=0;entryX=1;entryY=0.5;entryDx=0;entryDy=0;entryPerimeter=0;" edge="1" parent="1" source="UuY6J-Y-4haexHFStDAC-70" target="UuY6J-Y-4haexHFStDAC-58">
          <mxGeometry relative="1" as="geometry" />
        </mxCell>
        <mxCell id="UuY6J-Y-4haexHFStDAC-70" value="r = r - 1" style="rounded=1;whiteSpace=wrap;html=1;" vertex="1" parent="1">
          <mxGeometry x="460" y="370" width="120" height="60" as="geometry" />
        </mxCell>
        <mxCell id="UuY6J-Y-4haexHFStDAC-72" value="&lt;div&gt;r mod p = 0&lt;/div&gt;&lt;div&gt;and r mod q = 0&lt;br&gt;&lt;/div&gt;" style="text;fontStyle=0;html=1;strokeColor=none;gradientColor=none;fillColor=none;strokeWidth=2;align=center;" vertex="1" parent="1">
          <mxGeometry x="300" y="440" width="130" height="46" as="geometry" />
        </mxCell>
        <mxCell id="UuY6J-Y-4haexHFStDAC-78" style="edgeStyle=orthogonalEdgeStyle;rounded=0;orthogonalLoop=1;jettySize=auto;html=1;exitX=0.5;exitY=1;exitDx=0;exitDy=0;entryX=0.5;entryY=0;entryDx=0;entryDy=0;entryPerimeter=0;" edge="1" parent="1" source="UuY6J-Y-4haexHFStDAC-75" target="UuY6J-Y-4haexHFStDAC-76">
          <mxGeometry relative="1" as="geometry" />
        </mxCell>
        <mxCell id="UuY6J-Y-4haexHFStDAC-75" value="return m" style="rounded=1;whiteSpace=wrap;html=1;" vertex="1" parent="1">
          <mxGeometry x="260" y="610" width="120" height="60" as="geometry" />
        </mxCell>
        <mxCell id="UuY6J-Y-4haexHFStDAC-76" value="end" style="shape=mxgraph.flowchart.terminator;strokeWidth=2;gradientColor=none;gradientDirection=north;fontStyle=0;html=1;" vertex="1" parent="1">
          <mxGeometry x="260" y="710" width="120" height="50" as="geometry" />
        </mxCell>
      </root>
    </mxGraphModel>
  </diagram>
</mxfile>
